<svg xmlns="http://www.w3.org/2000/svg" xmlns:xlink="http://www.w3.org/1999/xlink" width="500" zoomAndPan="magnify" viewBox="0 0 375 374.999991" height="500" preserveAspectRatio="xMidYMid meet" version="1.0"><defs><g/><clipPath id="313cc1701f"><path d="M 0 0.535156 L 375 0.535156 L 375 375 L 0 375 Z M 0 0.535156 " clip-rule="nonzero"/></clipPath><clipPath id="e7bad8125a"><path d="M 57.238281 0.535156 L 316.15625 0.535156 C 348.652344 0.535156 375 26.882812 375 59.378906 L 375 318.296875 C 375 350.796875 348.652344 377.144531 316.15625 377.144531 L 57.238281 377.144531 C 24.738281 377.144531 -1.605469 350.796875 -1.605469 318.296875 L -1.605469 59.378906 C -1.605469 26.882812 24.738281 0.535156 57.238281 0.535156 Z M 57.238281 0.535156 " clip-rule="nonzero"/></clipPath><clipPath id="b8b09a0b52"><path d="M 37.5 255 L 49.285156 255 L 49.285156 337.5 L 37.5 337.5 Z M 37.5 255 " clip-rule="nonzero"/></clipPath><clipPath id="30f238e631"><path d="M 37.496094 325.71875 L 119.996094 325.71875 L 119.996094 337.503906 L 37.496094 337.503906 Z M 37.496094 325.71875 " clip-rule="nonzero"/></clipPath><clipPath id="03622c600e"><path d="M 37.496094 37.503906 L 119.996094 37.503906 L 119.996094 49.289062 L 37.496094 49.289062 Z M 37.496094 37.503906 " clip-rule="nonzero"/></clipPath><clipPath id="854dbf2a3a"><path d="M 37.492188 37.5 L 49.277344 37.5 L 49.277344 120 L 37.492188 120 Z M 37.492188 37.5 " clip-rule="nonzero"/></clipPath><clipPath id="889463aba1"><path d="M 325.707031 37.5 L 337.492188 37.5 L 337.492188 120 L 325.707031 120 Z M 325.707031 37.5 " clip-rule="nonzero"/></clipPath><clipPath id="2689f01bce"><path d="M 254.996094 37.496094 L 337.496094 37.496094 L 337.496094 49.28125 L 254.996094 49.28125 Z M 254.996094 37.496094 " clip-rule="nonzero"/></clipPath><clipPath id="f8fb8443ee"><path d="M 254.996094 319.816406 L 337.496094 319.816406 L 337.496094 331.601562 L 254.996094 331.601562 Z M 254.996094 319.816406 " clip-rule="nonzero"/></clipPath><clipPath id="c5303c9bc7"><path d="M 325.714844 249.105469 L 337.5 249.105469 L 337.5 331.605469 L 325.714844 331.605469 Z M 325.714844 249.105469 " clip-rule="nonzero"/></clipPath></defs><g clip-path="url(#313cc1701f)"><g clip-path="url(#e7bad8125a)"><path fill="#000000" d="M -1.605469 0.535156 L 375 0.535156 L 375 377.144531 L -1.605469 377.144531 Z M -1.605469 0.535156 " fill-opacity="1" fill-rule="nonzero"/></g></g><g clip-path="url(#b8b09a0b52)"><path fill="#ffffff" d="M 37.5 255 L 49.285156 255 L 49.285156 337.5 L 37.5 337.5 Z M 37.5 255 " fill-opacity="1" fill-rule="nonzero"/></g><g clip-path="url(#30f238e631)"><path fill="#ffffff" d="M 119.996094 325.71875 L 119.996094 337.503906 L 37.496094 337.503906 L 37.496094 325.71875 Z M 119.996094 325.71875 " fill-opacity="1" fill-rule="nonzero"/></g><g clip-path="url(#03622c600e)"><path fill="#ffffff" d="M 119.996094 37.503906 L 119.996094 49.289062 L 37.496094 49.289062 L 37.496094 37.503906 Z M 119.996094 37.503906 " fill-opacity="1" fill-rule="nonzero"/></g><g clip-path="url(#854dbf2a3a)"><path fill="#ffffff" d="M 49.277344 120 L 37.492188 120 L 37.492188 37.5 L 49.277344 37.5 Z M 49.277344 120 " fill-opacity="1" fill-rule="nonzero"/></g><g clip-path="url(#889463aba1)"><path fill="#ffffff" d="M 337.492188 120 L 325.707031 120 L 325.707031 37.5 L 337.492188 37.5 Z M 337.492188 120 " fill-opacity="1" fill-rule="nonzero"/></g><g clip-path="url(#2689f01bce)"><path fill="#ffffff" d="M 254.996094 49.28125 L 254.996094 37.496094 L 337.496094 37.496094 L 337.496094 49.28125 Z M 254.996094 49.28125 " fill-opacity="1" fill-rule="nonzero"/></g><g clip-path="url(#f8fb8443ee)"><path fill="#ffffff" d="M 254.996094 331.601562 L 254.996094 319.816406 L 337.496094 319.816406 L 337.496094 331.601562 Z M 254.996094 331.601562 " fill-opacity="1" fill-rule="nonzero"/></g><g clip-path="url(#c5303c9bc7)"><path fill="#ffffff" d="M 325.714844 249.105469 L 337.5 249.105469 L 337.5 331.605469 L 325.714844 331.605469 Z M 325.714844 249.105469 " fill-opacity="1" fill-rule="nonzero"/></g><g fill="#ffffff" fill-opacity="1"><g transform="translate(129.877921, 263.470044)"><g><path d="M 106.109375 -44.40625 C 106.109375 -34.101562 102.382812 -25.828125 94.9375 -19.578125 C 87.488281 -13.328125 77.054688 -9.585938 63.640625 -8.359375 L 63.640625 11.5625 L 50.328125 11.5625 L 50.328125 -7.96875 C 34.523438 -8.289062 20.664062 -11.078125 8.75 -16.328125 L 8.75 -41.984375 C 14.382812 -39.191406 21.164062 -36.726562 29.09375 -34.59375 C 37.03125 -32.457031 44.109375 -31.191406 50.328125 -30.796875 L 50.328125 -60.921875 L 43.828125 -63.453125 C 30.992188 -68.503906 21.90625 -73.992188 16.5625 -79.921875 C 11.21875 -85.847656 8.546875 -93.179688 8.546875 -101.921875 C 8.546875 -111.316406 12.222656 -119.039062 19.578125 -125.09375 C 26.929688 -131.15625 37.179688 -134.832031 50.328125 -136.125 L 50.328125 -151 L 63.640625 -151 L 63.640625 -136.515625 C 78.472656 -135.867188 91.882812 -132.890625 103.875 -127.578125 L 94.734375 -104.84375 C 84.628906 -108.988281 74.265625 -111.515625 63.640625 -112.421875 L 63.640625 -83.765625 C 76.273438 -78.898438 85.265625 -74.6875 90.609375 -71.125 C 95.953125 -67.5625 99.867188 -63.640625 102.359375 -59.359375 C 104.859375 -55.085938 106.109375 -50.101562 106.109375 -44.40625 Z M 76.859375 -42.953125 C 76.859375 -45.671875 75.753906 -47.96875 73.546875 -49.84375 C 71.347656 -51.726562 68.046875 -53.671875 63.640625 -55.671875 L 63.640625 -31.484375 C 72.453125 -32.972656 76.859375 -36.796875 76.859375 -42.953125 Z M 37.796875 -101.921875 C 37.796875 -99.078125 38.78125 -96.726562 40.75 -94.875 C 42.726562 -93.03125 45.921875 -91.140625 50.328125 -89.203125 L 50.328125 -112.03125 C 41.972656 -110.800781 37.796875 -107.429688 37.796875 -101.921875 Z M 37.796875 -101.921875 "/></g></g></g></svg>