<svg xmlns="http://www.w3.org/2000/svg" xmlns:xlink="http://www.w3.org/1999/xlink" width="500" zoomAndPan="magnify" viewBox="0 0 375 374.999991" height="500" preserveAspectRatio="xMidYMid meet" version="1.0"><defs><g/><clipPath id="a5b2383cbe"><path d="M 55.949219 56.011719 L 318.242188 56.011719 L 318.242188 320 L 55.949219 320 Z M 55.949219 56.011719 " clip-rule="nonzero"/></clipPath><clipPath id="bfa550a8b7"><path d="M 114.792969 56.011719 L 259.398438 56.011719 C 275.003906 56.011719 289.972656 62.210938 301.007812 73.246094 C 312.042969 84.28125 318.242188 99.25 318.242188 114.855469 L 318.242188 260.960938 C 318.242188 276.566406 312.042969 291.53125 301.007812 302.570312 C 289.972656 313.605469 275.003906 319.804688 259.398438 319.804688 L 114.792969 319.804688 C 99.1875 319.804688 84.21875 313.605469 73.183594 302.570312 C 62.148438 291.53125 55.949219 276.566406 55.949219 260.960938 L 55.949219 114.855469 C 55.949219 99.25 62.148438 84.28125 73.183594 73.246094 C 84.21875 62.210938 99.1875 56.011719 114.792969 56.011719 Z M 114.792969 56.011719 " clip-rule="nonzero"/></clipPath><clipPath id="1b40460901"><path d="M 82.175781 234.371094 L 90.421875 234.371094 L 90.421875 292.074219 L 82.175781 292.074219 Z M 82.175781 234.371094 " clip-rule="nonzero"/></clipPath><clipPath id="d292757451"><path d="M 82.171875 283.832031 L 139.878906 283.832031 L 139.878906 292.078125 L 82.171875 292.078125 Z M 82.171875 283.832031 " clip-rule="nonzero"/></clipPath><clipPath id="db5b4b140a"><path d="M 82.171875 82.242188 L 139.878906 82.242188 L 139.878906 90.484375 L 82.171875 90.484375 Z M 82.171875 82.242188 " clip-rule="nonzero"/></clipPath><clipPath id="3cb8e9e66b"><path d="M 82.171875 82.238281 L 90.414062 82.238281 L 90.414062 139.941406 L 82.171875 139.941406 Z M 82.171875 82.238281 " clip-rule="nonzero"/></clipPath><clipPath id="893ba51c66"><path d="M 283.765625 82.238281 L 292.007812 82.238281 L 292.007812 139.941406 L 283.765625 139.941406 Z M 283.765625 82.238281 " clip-rule="nonzero"/></clipPath><clipPath id="938d2db937"><path d="M 234.304688 82.234375 L 292.011719 82.234375 L 292.011719 90.480469 L 234.304688 90.480469 Z M 234.304688 82.234375 " clip-rule="nonzero"/></clipPath><clipPath id="4bd3d7f06c"><path d="M 234.304688 279.707031 L 292.011719 279.707031 L 292.011719 287.949219 L 234.304688 287.949219 Z M 234.304688 279.707031 " clip-rule="nonzero"/></clipPath><clipPath id="a095af38c7"><path d="M 283.769531 230.25 L 292.011719 230.25 L 292.011719 287.953125 L 283.769531 287.953125 Z M 283.769531 230.25 " clip-rule="nonzero"/></clipPath></defs><g clip-path="url(#a5b2383cbe)"><g clip-path="url(#bfa550a8b7)"><path fill="#000000" d="M 55.949219 56.011719 L 318.242188 56.011719 L 318.242188 319.328125 L 55.949219 319.328125 Z M 55.949219 56.011719 " fill-opacity="1" fill-rule="nonzero"/></g></g><g clip-path="url(#1b40460901)"><path fill="#ffffff" d="M 82.175781 234.371094 L 90.421875 234.371094 L 90.421875 292.074219 L 82.175781 292.074219 Z M 82.175781 234.371094 " fill-opacity="1" fill-rule="nonzero"/></g><g clip-path="url(#d292757451)"><path fill="#ffffff" d="M 139.878906 283.832031 L 139.878906 292.078125 L 82.171875 292.078125 L 82.171875 283.832031 Z M 139.878906 283.832031 " fill-opacity="1" fill-rule="nonzero"/></g><g clip-path="url(#db5b4b140a)"><path fill="#ffffff" d="M 139.878906 82.242188 L 139.878906 90.484375 L 82.171875 90.484375 L 82.171875 82.242188 Z M 139.878906 82.242188 " fill-opacity="1" fill-rule="nonzero"/></g><g clip-path="url(#3cb8e9e66b)"><path fill="#ffffff" d="M 90.414062 139.941406 L 82.171875 139.941406 L 82.171875 82.238281 L 90.414062 82.238281 Z M 90.414062 139.941406 " fill-opacity="1" fill-rule="nonzero"/></g><g clip-path="url(#893ba51c66)"><path fill="#ffffff" d="M 292.007812 139.941406 L 283.765625 139.941406 L 283.765625 82.238281 L 292.007812 82.238281 Z M 292.007812 139.941406 " fill-opacity="1" fill-rule="nonzero"/></g><g clip-path="url(#938d2db937)"><path fill="#ffffff" d="M 234.304688 90.480469 L 234.304688 82.234375 L 292.011719 82.234375 L 292.011719 90.480469 Z M 234.304688 90.480469 " fill-opacity="1" fill-rule="nonzero"/></g><g clip-path="url(#4bd3d7f06c)"><path fill="#ffffff" d="M 234.304688 287.949219 L 234.304688 279.707031 L 292.011719 279.707031 L 292.011719 287.949219 Z M 234.304688 287.949219 " fill-opacity="1" fill-rule="nonzero"/></g><g clip-path="url(#a095af38c7)"><path fill="#ffffff" d="M 283.769531 230.25 L 292.011719 230.25 L 292.011719 287.953125 L 283.769531 287.953125 Z M 283.769531 230.25 " fill-opacity="1" fill-rule="nonzero"/></g><g fill="#ffffff" fill-opacity="1"><g transform="translate(146.79124, 240.295181)"><g><path d="M 74.21875 -31.0625 C 74.21875 -23.851562 71.609375 -18.0625 66.390625 -13.6875 C 61.179688 -9.320312 53.890625 -6.707031 44.515625 -5.84375 L 44.515625 8.09375 L 35.203125 8.09375 L 35.203125 -5.578125 C 24.148438 -5.796875 14.453125 -7.742188 6.109375 -11.421875 L 6.109375 -29.359375 C 10.054688 -27.410156 14.804688 -25.6875 20.359375 -24.1875 C 25.910156 -22.695312 30.859375 -21.816406 35.203125 -21.546875 L 35.203125 -42.609375 L 30.65625 -44.375 C 21.675781 -47.914062 15.316406 -51.757812 11.578125 -55.90625 C 7.847656 -60.050781 5.984375 -65.179688 5.984375 -71.296875 C 5.984375 -77.859375 8.550781 -83.257812 13.6875 -87.5 C 18.832031 -91.738281 26.003906 -94.3125 35.203125 -95.21875 L 35.203125 -105.609375 L 44.515625 -105.609375 L 44.515625 -95.484375 C 54.890625 -95.035156 64.269531 -92.953125 72.65625 -89.234375 L 66.265625 -73.328125 C 59.191406 -76.234375 51.941406 -78 44.515625 -78.625 L 44.515625 -58.578125 C 53.347656 -55.179688 59.632812 -52.238281 63.375 -49.75 C 67.113281 -47.257812 69.851562 -44.519531 71.59375 -41.53125 C 73.34375 -38.539062 74.21875 -35.050781 74.21875 -31.0625 Z M 53.765625 -30.046875 C 53.765625 -31.941406 52.992188 -33.546875 51.453125 -34.859375 C 49.910156 -36.171875 47.597656 -37.53125 44.515625 -38.9375 L 44.515625 -22.015625 C 50.679688 -23.054688 53.765625 -25.734375 53.765625 -30.046875 Z M 26.4375 -71.296875 C 26.4375 -69.296875 27.125 -67.648438 28.5 -66.359375 C 29.882812 -65.066406 32.117188 -63.742188 35.203125 -62.390625 L 35.203125 -78.359375 C 29.359375 -77.492188 26.4375 -75.140625 26.4375 -71.296875 Z M 26.4375 -71.296875 "/></g></g></g></svg>