<svg xmlns="http://www.w3.org/2000/svg" xmlns:xlink="http://www.w3.org/1999/xlink" width="500" zoomAndPan="magnify" viewBox="0 0 375 374.999991" height="500" preserveAspectRatio="xMidYMid meet" version="1.0"><defs><g/><clipPath id="c2437f5b1c"><path d="M 0 114.910156 L 260.625 114.910156 L 260.625 375 L 0 375 Z M 0 114.910156 " clip-rule="nonzero"/></clipPath><clipPath id="7f567622b5"><path d="M 57.238281 114.910156 L 201.78125 114.910156 C 217.386719 114.910156 232.355469 121.109375 243.390625 132.144531 C 254.425781 143.179688 260.625 158.148438 260.625 173.753906 L 260.625 318.296875 C 260.625 333.90625 254.425781 348.871094 243.390625 359.90625 C 232.355469 370.941406 217.386719 377.144531 201.78125 377.144531 L 57.238281 377.144531 C 41.632812 377.144531 26.664062 370.941406 15.628906 359.90625 C 4.59375 348.871094 -1.605469 333.90625 -1.605469 318.296875 L -1.605469 173.753906 C -1.605469 158.148438 4.59375 143.179688 15.628906 132.144531 C 26.664062 121.109375 41.632812 114.910156 57.238281 114.910156 Z M 57.238281 114.910156 " clip-rule="nonzero"/></clipPath><clipPath id="eae95bff5f"><path d="M 25.625 292.09375 L 33.828125 292.09375 L 33.828125 349.539062 L 25.625 349.539062 Z M 25.625 292.09375 " clip-rule="nonzero"/></clipPath><clipPath id="bb56331c66"><path d="M 25.617188 341.328125 L 83.0625 341.328125 L 83.0625 349.535156 L 25.617188 349.535156 Z M 25.617188 341.328125 " clip-rule="nonzero"/></clipPath><clipPath id="e5d4dc50f8"><path d="M 25.617188 140.644531 L 83.0625 140.644531 L 83.0625 148.851562 L 25.617188 148.851562 Z M 25.617188 140.644531 " clip-rule="nonzero"/></clipPath><clipPath id="b233cba306"><path d="M 25.621094 140.636719 L 33.828125 140.636719 L 33.828125 198.082031 L 25.621094 198.082031 Z M 25.621094 140.636719 " clip-rule="nonzero"/></clipPath><clipPath id="6a0e97316e"><path d="M 226.304688 140.636719 L 234.511719 140.636719 L 234.511719 198.082031 L 226.304688 198.082031 Z M 226.304688 140.636719 " clip-rule="nonzero"/></clipPath><clipPath id="00fed46d95"><path d="M 177.074219 140.640625 L 234.519531 140.640625 L 234.519531 148.847656 L 177.074219 148.847656 Z M 177.074219 140.640625 " clip-rule="nonzero"/></clipPath><clipPath id="a620d70eb3"><path d="M 177.074219 337.222656 L 234.519531 337.222656 L 234.519531 345.429688 L 177.074219 345.429688 Z M 177.074219 337.222656 " clip-rule="nonzero"/></clipPath><clipPath id="01bb2c21bf"><path d="M 226.308594 287.992188 L 234.515625 287.992188 L 234.515625 345.4375 L 226.308594 345.4375 Z M 226.308594 287.992188 " clip-rule="nonzero"/></clipPath></defs><g clip-path="url(#c2437f5b1c)"><g clip-path="url(#7f567622b5)"><path fill="#ffffff" d="M -1.605469 114.910156 L 260.625 114.910156 L 260.625 377.144531 L -1.605469 377.144531 Z M -1.605469 114.910156 " fill-opacity="1" fill-rule="nonzero"/></g></g><g clip-path="url(#eae95bff5f)"><path fill="#000000" d="M 25.625 292.09375 L 33.828125 292.09375 L 33.828125 349.539062 L 25.625 349.539062 Z M 25.625 292.09375 " fill-opacity="1" fill-rule="nonzero"/></g><g clip-path="url(#bb56331c66)"><path fill="#000000" d="M 83.0625 341.328125 L 83.0625 349.535156 L 25.617188 349.535156 L 25.617188 341.328125 Z M 83.0625 341.328125 " fill-opacity="1" fill-rule="nonzero"/></g><g clip-path="url(#e5d4dc50f8)"><path fill="#000000" d="M 83.0625 140.644531 L 83.0625 148.851562 L 25.617188 148.851562 L 25.617188 140.644531 Z M 83.0625 140.644531 " fill-opacity="1" fill-rule="nonzero"/></g><g clip-path="url(#b233cba306)"><path fill="#000000" d="M 33.828125 198.082031 L 25.621094 198.082031 L 25.621094 140.636719 L 33.828125 140.636719 Z M 33.828125 198.082031 " fill-opacity="1" fill-rule="nonzero"/></g><g clip-path="url(#6a0e97316e)"><path fill="#000000" d="M 234.511719 198.082031 L 226.304688 198.082031 L 226.304688 140.636719 L 234.511719 140.636719 Z M 234.511719 198.082031 " fill-opacity="1" fill-rule="nonzero"/></g><g clip-path="url(#00fed46d95)"><path fill="#000000" d="M 177.074219 148.847656 L 177.074219 140.640625 L 234.519531 140.640625 L 234.519531 148.847656 Z M 177.074219 148.847656 " fill-opacity="1" fill-rule="nonzero"/></g><g clip-path="url(#a620d70eb3)"><path fill="#000000" d="M 177.074219 345.429688 L 177.074219 337.222656 L 234.519531 337.222656 L 234.519531 345.429688 Z M 177.074219 345.429688 " fill-opacity="1" fill-rule="nonzero"/></g><g clip-path="url(#01bb2c21bf)"><path fill="#000000" d="M 226.308594 287.992188 L 234.515625 287.992188 L 234.515625 345.4375 L 226.308594 345.4375 Z M 226.308594 287.992188 " fill-opacity="1" fill-rule="nonzero"/></g><g fill="#000000" fill-opacity="1"><g transform="translate(89.958455, 300.291667)"><g><path d="M 73.890625 -30.921875 C 73.890625 -23.753906 71.296875 -17.992188 66.109375 -13.640625 C 60.921875 -9.285156 53.660156 -6.675781 44.328125 -5.8125 L 44.328125 8.046875 L 35.046875 8.046875 L 35.046875 -5.546875 C 24.046875 -5.773438 14.394531 -7.71875 6.09375 -11.375 L 6.09375 -29.234375 C 10.019531 -27.296875 14.742188 -25.582031 20.265625 -24.09375 C 25.785156 -22.601562 30.710938 -21.722656 35.046875 -21.453125 L 35.046875 -42.421875 L 30.515625 -44.1875 C 21.585938 -47.707031 15.257812 -51.53125 11.53125 -55.65625 C 7.8125 -59.78125 5.953125 -64.890625 5.953125 -70.984375 C 5.953125 -77.523438 8.507812 -82.90625 13.625 -87.125 C 18.75 -91.34375 25.890625 -93.898438 35.046875 -94.796875 L 35.046875 -105.15625 L 44.328125 -105.15625 L 44.328125 -95.0625 C 54.648438 -94.613281 63.984375 -92.539062 72.328125 -88.84375 L 65.96875 -73.015625 C 58.9375 -75.898438 51.722656 -77.65625 44.328125 -78.28125 L 44.328125 -58.328125 C 53.117188 -54.941406 59.375 -52.007812 63.09375 -49.53125 C 66.820312 -47.050781 69.550781 -44.320312 71.28125 -41.34375 C 73.019531 -38.363281 73.890625 -34.890625 73.890625 -30.921875 Z M 53.515625 -29.90625 C 53.515625 -31.800781 52.75 -33.398438 51.21875 -34.703125 C 49.6875 -36.015625 47.390625 -37.367188 44.328125 -38.765625 L 44.328125 -21.921875 C 50.453125 -22.960938 53.515625 -25.625 53.515625 -29.90625 Z M 26.328125 -70.984375 C 26.328125 -68.992188 27.015625 -67.351562 28.390625 -66.0625 C 29.765625 -64.78125 31.984375 -63.460938 35.046875 -62.109375 L 35.046875 -78.015625 C 29.234375 -77.160156 26.328125 -74.816406 26.328125 -70.984375 Z M 26.328125 -70.984375 "/></g></g></g></svg>