<svg xmlns="http://www.w3.org/2000/svg" xmlns:xlink="http://www.w3.org/1999/xlink" width="500" zoomAndPan="magnify" viewBox="0 0 375 374.999991" height="500" preserveAspectRatio="xMidYMid meet" version="1.0"><defs><g/><clipPath id="e4af220565"><path d="M 0 0.535156 L 375 0.535156 L 375 375 L 0 375 Z M 0 0.535156 " clip-rule="nonzero"/></clipPath><clipPath id="603010181f"><path d="M 57.238281 0.535156 L 316.15625 0.535156 C 348.652344 0.535156 375 26.882812 375 59.378906 L 375 318.296875 C 375 350.796875 348.652344 377.144531 316.15625 377.144531 L 57.238281 377.144531 C 24.738281 377.144531 -1.605469 350.796875 -1.605469 318.296875 L -1.605469 59.378906 C -1.605469 26.882812 24.738281 0.535156 57.238281 0.535156 Z M 57.238281 0.535156 " clip-rule="nonzero"/></clipPath><clipPath id="f4c316f587"><path d="M 37.5 255 L 49.285156 255 L 49.285156 337.5 L 37.5 337.5 Z M 37.5 255 " clip-rule="nonzero"/></clipPath><clipPath id="940dacab2c"><path d="M 37.496094 325.71875 L 119.996094 325.71875 L 119.996094 337.503906 L 37.496094 337.503906 Z M 37.496094 325.71875 " clip-rule="nonzero"/></clipPath><clipPath id="73e4ecef65"><path d="M 37.496094 37.503906 L 119.996094 37.503906 L 119.996094 49.289062 L 37.496094 49.289062 Z M 37.496094 37.503906 " clip-rule="nonzero"/></clipPath><clipPath id="126d07313a"><path d="M 37.492188 37.5 L 49.277344 37.5 L 49.277344 120 L 37.492188 120 Z M 37.492188 37.5 " clip-rule="nonzero"/></clipPath><clipPath id="e41ac974d5"><path d="M 325.707031 37.5 L 337.492188 37.5 L 337.492188 120 L 325.707031 120 Z M 325.707031 37.5 " clip-rule="nonzero"/></clipPath><clipPath id="24f1ada0bb"><path d="M 254.996094 37.496094 L 337.496094 37.496094 L 337.496094 49.28125 L 254.996094 49.28125 Z M 254.996094 37.496094 " clip-rule="nonzero"/></clipPath><clipPath id="0db0c5489d"><path d="M 254.996094 319.816406 L 337.496094 319.816406 L 337.496094 331.601562 L 254.996094 331.601562 Z M 254.996094 319.816406 " clip-rule="nonzero"/></clipPath><clipPath id="61662137a5"><path d="M 325.714844 249.105469 L 337.5 249.105469 L 337.5 331.605469 L 325.714844 331.605469 Z M 325.714844 249.105469 " clip-rule="nonzero"/></clipPath></defs><g clip-path="url(#e4af220565)"><g clip-path="url(#603010181f)"><path fill="#ffffff" d="M -1.605469 0.535156 L 375 0.535156 L 375 377.144531 L -1.605469 377.144531 Z M -1.605469 0.535156 " fill-opacity="1" fill-rule="nonzero"/></g></g><g clip-path="url(#f4c316f587)"><path fill="#000000" d="M 37.5 255 L 49.285156 255 L 49.285156 337.5 L 37.5 337.5 Z M 37.5 255 " fill-opacity="1" fill-rule="nonzero"/></g><g clip-path="url(#940dacab2c)"><path fill="#000000" d="M 119.996094 325.71875 L 119.996094 337.503906 L 37.496094 337.503906 L 37.496094 325.71875 Z M 119.996094 325.71875 " fill-opacity="1" fill-rule="nonzero"/></g><g clip-path="url(#73e4ecef65)"><path fill="#000000" d="M 119.996094 37.503906 L 119.996094 49.289062 L 37.496094 49.289062 L 37.496094 37.503906 Z M 119.996094 37.503906 " fill-opacity="1" fill-rule="nonzero"/></g><g clip-path="url(#126d07313a)"><path fill="#000000" d="M 49.277344 120 L 37.492188 120 L 37.492188 37.5 L 49.277344 37.5 Z M 49.277344 120 " fill-opacity="1" fill-rule="nonzero"/></g><g clip-path="url(#e41ac974d5)"><path fill="#000000" d="M 337.492188 120 L 325.707031 120 L 325.707031 37.5 L 337.492188 37.5 Z M 337.492188 120 " fill-opacity="1" fill-rule="nonzero"/></g><g clip-path="url(#24f1ada0bb)"><path fill="#000000" d="M 254.996094 49.28125 L 254.996094 37.496094 L 337.496094 37.496094 L 337.496094 49.28125 Z M 254.996094 49.28125 " fill-opacity="1" fill-rule="nonzero"/></g><g clip-path="url(#0db0c5489d)"><path fill="#000000" d="M 254.996094 331.601562 L 254.996094 319.816406 L 337.496094 319.816406 L 337.496094 331.601562 Z M 254.996094 331.601562 " fill-opacity="1" fill-rule="nonzero"/></g><g clip-path="url(#61662137a5)"><path fill="#000000" d="M 325.714844 249.105469 L 337.5 249.105469 L 337.5 331.605469 L 325.714844 331.605469 Z M 325.714844 249.105469 " fill-opacity="1" fill-rule="nonzero"/></g><g fill="#000000" fill-opacity="1"><g transform="translate(129.895645, 266.772345)"><g><path d="M 106.109375 -44.40625 C 106.109375 -34.101562 102.382812 -25.828125 94.9375 -19.578125 C 87.488281 -13.328125 77.0625 -9.585938 63.65625 -8.359375 L 63.65625 11.5625 L 50.34375 11.5625 L 50.34375 -7.96875 C 34.53125 -8.289062 20.664062 -11.078125 8.75 -16.328125 L 8.75 -41.984375 C 14.382812 -39.191406 21.171875 -36.726562 29.109375 -34.59375 C 37.046875 -32.457031 44.125 -31.191406 50.34375 -30.796875 L 50.34375 -60.921875 L 43.828125 -63.453125 C 30.992188 -68.503906 21.90625 -73.992188 16.5625 -79.921875 C 11.21875 -85.847656 8.546875 -93.1875 8.546875 -101.9375 C 8.546875 -111.332031 12.222656 -119.054688 19.578125 -125.109375 C 26.929688 -131.171875 37.1875 -134.847656 50.34375 -136.140625 L 50.34375 -151.015625 L 63.65625 -151.015625 L 63.65625 -136.53125 C 78.488281 -135.882812 91.894531 -132.90625 103.875 -127.59375 L 94.75 -104.859375 C 84.644531 -109.003906 74.28125 -111.53125 63.65625 -112.4375 L 63.65625 -83.765625 C 76.28125 -78.910156 85.265625 -74.695312 90.609375 -71.125 C 95.960938 -67.5625 99.882812 -63.640625 102.375 -59.359375 C 104.863281 -55.085938 106.109375 -50.101562 106.109375 -44.40625 Z M 76.859375 -42.953125 C 76.859375 -45.671875 75.757812 -47.96875 73.5625 -49.84375 C 71.363281 -51.726562 68.0625 -53.675781 63.65625 -55.6875 L 63.65625 -31.484375 C 72.457031 -32.972656 76.859375 -36.796875 76.859375 -42.953125 Z M 37.796875 -101.9375 C 37.796875 -99.082031 38.785156 -96.734375 40.765625 -94.890625 C 42.742188 -93.046875 45.9375 -91.148438 50.34375 -89.203125 L 50.34375 -112.046875 C 41.976562 -110.816406 37.796875 -107.445312 37.796875 -101.9375 Z M 37.796875 -101.9375 "/></g></g></g></svg>